<svg xmlns="http://www.w3.org/2000/svg" version="1.1" xmlns:xlink="http://www.w3.org/1999/xlink" xmlns:svgjs="http://svgjs.dev/svgjs" width="1500" height="1500" viewBox="0 0 1500 1500"><rect width="1500" height="1500" fill="#ffffff"></rect><g transform="matrix(0.21593608291945585,0,0,0.21593608291945585,587.2300798963506,250.40485829959516)"><svg viewBox="0 0 80 247" data-background-color="#ffffff" preserveAspectRatio="xMidYMid meet" height="4631" width="1500" xmlns="http://www.w3.org/2000/svg" xmlns:xlink="http://www.w3.org/1999/xlink"><g id="tight-bounds" transform="matrix(1,0,0,1,0.20199999999999818,-0.09999999999999432)"><svg viewBox="0 0 79.59560403680412 247.2" height="247.2" width="79.59560403680412"><g><svg></svg></g><g><svg viewBox="0 0 79.59560403680412 247.2" height="247.2" width="79.59560403680412"><g transform="matrix(1,0,0,1,0,47.215199999999996)"><svg viewBox="0 0 79.59560403680412 152.7696" height="152.7696" width="79.59560403680412"><g><svg viewBox="0 0 79.59560403680412 152.7696" height="152.7696" width="79.59560403680412"><g><svg viewBox="0 0 146.66427762139378 281.4959858354623" height="152.7696" width="79.59560403680412"><g><svg viewBox="0 0 146.66427762139378 281.4959858354623" height="281.4959858354623" width="146.66427762139378"><g id="textblocktransform"><svg viewBox="0 0 146.66427762139378 281.4959858354623" height="281.4959858354623" width="146.66427762139378" id="textblock"><g><svg viewBox="0 0 146.66427762139378 151.825483872" height="151.825483872" width="146.66427762139378"><g transform="matrix(1,0,0,1,0,0)"><svg width="146.66427762139378" viewBox="0.3 -35.3 34.1 35.3" height="151.825483872" data-palette-color="#ed1703"><path d="M18.05-0.95L21.6-0.95 17.95-11.75 8.05-11.75 4.2-0.95 7.95-0.95 7.95 0 0.3 0 0.3-0.95 2.65-0.95 15.4-35.3 19.5-35.3 32.1-0.95 34.4-0.95 34.4 0 18.05 0 18.05-0.95ZM17.55-12.85L13.2-25.95 8.5-12.85 17.55-12.85Z" opacity="1" transform="matrix(1,0,0,1,0,0)" fill="#000000" class="wordmark-text-0" data-fill-palette-color="primary" id="text-0"></path></svg></g></svg></g><g transform="matrix(1,0,0,1,0,187.66783680256628)"><svg viewBox="0 0 146.66427762139378 93.82814903289601" height="93.82814903289601" width="146.66427762139378"><g transform="matrix(1,0,0,1,0,0)"><svg width="146.66427762139378" viewBox="-1 -35.5 36 35.5" height="93.82814903289601" data-palette-color="#ff908b"><path d="M-1 0L-1-0.75 3-2.25 16.75-35.5 18.25-35.5 32.5-1.5 35-0.75 35 0 29 0Q26.4 0 24.75-1.18 23.1-2.35 22.3-4.25L22.3-4.25 19.75-10.25 7.8-10.25 4.5-2.25 8.25-0.75 8.25 0-1 0ZM13.75-24.65L8.3-11.5 19.25-11.5 13.75-24.65Z" opacity="1" transform="matrix(1,0,0,1,0,0)" fill="#000000" class="slogan-text-1" data-fill-palette-color="secondary" id="text-1"></path></svg></g></svg></g></svg></g></svg></g><g></g></svg></g></svg></g></svg></g><path d="M0 41.215L0 1 79.596 1 79.596 41.215 72.165 41.215 72.165 8.431 7.431 8.431 7.431 41.215 0 41.215M0 205.985L0 246.2 79.596 246.2 79.596 205.985 72.165 205.985 72.165 238.769 7.431 238.769 7.431 205.985 0 205.985" fill="#000000" stroke="transparent" data-fill-palette-color="tertiary"></path></svg></g><defs></defs></svg><rect width="79.59560403680412" height="247.2" fill="none" stroke="none" visibility="hidden"></rect></g></svg></g></svg>